<svg   viewBox="0 0 1024 1024"  xmlns="http://www.w3.org/2000/svg"  width="200" height="200"><path d="M243.1 209.4c-29.4 47-63.7 89.2-97 121.5-13.7-11.8-42.1-31.4-60.8-40.2C151 235.8 207.8 151.5 238.2 64.3L307.7 81c-8.8 22.5-18.6 45.1-29.4 66.6h235.2v61.7H377.3c17.6 31.4 34.3 63.7 42.1 88.2L355.7 322c-8.8-29.4-30.4-75.5-51.9-112.7h-60.7z m-102 234.2h70.6V961h-70.6V443.6zM247 307.4c37.2 36.3 81.3 87.2 100.9 121.5l-57.8 37.2c-17.6-33.3-59.8-86.2-98-123.5l54.9-35.2z m156.8 521.3v49h-67.6V493.6h377.3v335.2H403.8z m502.7 45.1c0 43.1-11.8 62.7-45.1 74.5-32.3 10.8-89.2 9.8-178.4 9.8-3.9-18.6-13.7-45.1-24.5-63.7 67.6 2 134.3 2 151.9 0 19.6 0 24.5-4.9 24.5-20.6V401.5H377.3v-65.7h529.2v538zM403.8 550.4v80.4h240.1v-80.4H403.8z m240.1 220.5v-86.2H403.8v86.2h240.1z m296.9-623.2v61.7H783c20.6 30.4 38.2 60.8 48 84.3l-63.7 28.4c-10.8-29.4-36.3-75.5-63.7-112.7h-74.5c-23.5 40.2-49 76.4-77.4 103.9-12.7-10.8-42.1-30.4-58.8-40.2 53.9-51 99-128.4 123.5-207.8L685 81c-5.9 22.5-14.7 45.1-24.5 66.6h280.3z" ></path></svg>