<svg t="1744128623114" class="icon" viewBox="0 0 1024 1024" version="1.1" xmlns="http://www.w3.org/2000/svg" p-id="12189" width="200" height="200"><path d="M151.082113 872.917887L512 512H0s151.082113 126.53271 151.082113 360.917887z" fill="#00D651" p-id="12190"></path><path d="M512 1022.413022V512l-362.034978 362.043844s196.297697-17.368104 362.034978 148.369178z" fill="#54D6FF" p-id="12191"></path><path d="M872.917887 872.917887L512 512V1024s126.53271-151.082113 360.917887-151.082113z" fill="#E65EBE" p-id="12192"></path><path d="M1022.413022 512H512l362.043844 362.043844s-17.368104-196.306563 148.369178-362.043844z" fill="#E04848" p-id="12193"></path><path d="M872.917887 151.086545L512 512H1024s-151.082113-126.53271-151.082113-360.913455z" fill="#FA7F37" p-id="12194"></path><path d="M512 1.586978V512l362.043844-362.039411c0 0.004433-196.306563 17.359238-362.043844-148.373611z" fill="#FFC800" p-id="12195"></path><path d="M151.082113 151.082113L512 512V0S385.46729 151.082113 151.082113 151.082113z" fill="#FFFF45" p-id="12196"></path><path d="M1.582545 512H512L149.960589 149.965022S167.319827 346.267152 1.582545 512z" fill="#CCFF00" p-id="12197"></path></svg>