<svg t="1744128231359" class="icon" viewBox="0 0 1024 1024" version="1.1" xmlns="http://www.w3.org/2000/svg" p-id="8653" width="200" height="200"><path d="M529.827464 1023.823717A530.207187 530.207187 0 0 1 0.00143 494.021505 520.321039 520.321039 0 0 1 89.0244 201.701229 535.995943 535.995943 0 0 1 321.956326 2.977755a12.60186 12.60186 0 0 1 18.247684 2.239272 15.722548 15.722548 0 0 1 6.860748 20.582244 451.308584 451.308584 0 0 0-36.471546 175.878136 495.307895 495.307895 0 0 0 493.330666 493.306843 502.144821 502.144821 0 0 0 194.101997-34.208452 12.411284 12.411284 0 0 1 18.152396 2.167806 15.74637 15.74637 0 0 1 6.88457 20.582244 522.89382 522.89382 0 0 1-493.116267 340.274047z"  p-id="8654"></path><path d="M691.936459 96.741312l-45.952719-6.789282-21.153973-44.428108c-6.836926-14.81731-18.676481-14.81731-25.465763 0l-21.130151 44.428108-45.26188 6.76546c-16.175166 2.501314-19.915227 14.293225-8.718867 25.346653l33.565257 34.518138-8.099494 48.76372c-2.382204 16.675429 6.88457 22.845338 21.153973 15.436683l41.617107-22.845338 41.617107 22.845338c14.293225 8.05185 24.274661 1.214924 21.130151-14.81731L667.161535 157.225477l33.565257-33.922588c11.768089-12.36364 8.075672-24.060262-8.695045-26.537755z m0 0"  p-id="8655"></path><path d="M907.31154 401.32994l-30.968655-4.597654-14.293225-29.944307c-4.573832-9.957614-12.554216-9.957614-17.15187 0l-14.293225 29.944307-30.539858 4.55001c-10.886673 1.691365-13.387988 9.528817-5.860222 17.080404l22.583295 23.274135-5.431425 32.802952c-1.667543 11.244004 4.597654 15.412861 14.293225 10.38641l27.990899-15.365217 28.038543 15.365217c9.647927 5.431426 16.341921 0.833771 14.293226-9.957614l-5.431426-32.850595 22.583296-22.845339c7.93274-8.337715 5.431426-16.222811-5.860223-17.866531z m0 0"  p-id="8656"></path></svg>